<svg width="16" height="16" viewBox="0 0 16 16" fill="none" xmlns="http://www.w3.org/2000/svg">
<rect width="16" height="16" rx="4" fill="#010211"/>
<path fill-rule="evenodd" clip-rule="evenodd" d="M4.13721 4.5C4.11671 4.5 4.1001 4.51661 4.1001 4.53711V11.4951C4.1001 11.5156 4.11671 11.5322 4.13721 11.5322H5.91846C5.93895 11.5322 5.95557 11.5156 5.95557 11.4951V6.69658C5.95557 6.66235 5.99797 6.64637 6.02056 6.67209L8.02254 8.95181C8.08166 9.01914 8.1865 9.01914 8.24561 8.95181L12.101 4.5616C12.122 4.53762 12.105 4.5 12.0731 4.5H9.7025C9.69182 4.5 9.68166 4.5046 9.67462 4.51262L8.16196 6.23513C8.14718 6.25196 8.12097 6.25196 8.1062 6.23513L6.59354 4.51262C6.5865 4.5046 6.57634 4.5 6.56566 4.5H4.13721ZM12.1528 9.71387C12.1528 9.69337 12.1362 9.67676 12.1157 9.67676H10.3345C10.314 9.67676 10.2974 9.69337 10.2974 9.71387V11.4951C10.2974 11.5156 10.314 11.5322 10.3345 11.5322H12.1157C12.1362 11.5322 12.1528 11.5156 12.1528 11.4951V9.71387Z" fill="url(#paint0_linear_4118_11562)"/>
<defs>
<linearGradient id="paint0_linear_4118_11562" x1="8.12647" y1="4.5" x2="8.12647" y2="11.5322" gradientUnits="userSpaceOnUse">
<stop stop-color="#F0F0F3"/>
<stop offset="1" stop-color="#A9ADBB"/>
</linearGradient>
</defs>
</svg>
